<?xml version="1.0" encoding="UTF-8" standalone="no"?>
<svg
   xmlns:dc="http://purl.org/dc/elements/1.1/"
   xmlns:cc="http://creativecommons.org/ns#"
   xmlns:rdf="http://www.w3.org/1999/02/22-rdf-syntax-ns#"
   xmlns:svg="http://www.w3.org/2000/svg"
   xmlns="http://www.w3.org/2000/svg"
   xmlns:sodipodi="http://sodipodi.sourceforge.net/DTD/sodipodi-0.dtd"
   xmlns:inkscape="http://www.inkscape.org/namespaces/inkscape"
   sodipodi:docname="logo-white-text.svg"
   inkscape:version="1.0 (4035a4f, 2020-05-01)"
   xml:space="preserve"
   enable-background="new 0 0 189.378 142.534"
   viewBox="0 0 163.82916 48.861436"
   height="48.861435"
   width="163.82916"
   y="0px"
   x="0px"
   id="Layer_1"
   version="1.1"><metadata
   id="metadata29"><rdf:RDF><cc:Work
       rdf:about=""><dc:format>image/svg+xml</dc:format><dc:type
         rdf:resource="http://purl.org/dc/dcmitype/StillImage" /><dc:title></dc:title></cc:Work></rdf:RDF></metadata><defs
   id="defs27" /><sodipodi:namedview
   fit-margin-bottom="0"
   fit-margin-right="0"
   fit-margin-left="0"
   fit-margin-top="0"
   inkscape:document-rotation="0"
   inkscape:current-layer="Layer_1"
   inkscape:window-maximized="0"
   inkscape:window-y="183"
   inkscape:window-x="2036"
   inkscape:cy="72.815253"
   inkscape:cx="144.95372"
   inkscape:zoom="3.0012434"
   showgrid="false"
   id="namedview25"
   inkscape:window-height="725"
   inkscape:window-width="1440"
   inkscape:pageshadow="2"
   inkscape:pageopacity="0"
   guidetolerance="10"
   gridtolerance="10"
   objecttolerance="10"
   borderopacity="1"
   bordercolor="#666666"
   pagecolor="#ffffff" />











<g
   style="fill:#ffffff"
   id="g1185"><path
     style="fill:#ffffff"
     d="m 80.889955,20.27 h -10.63 l 5.315,-12.099 z m 1.547,3.411 3.412,7.497 h 4.006 L 75.574955,0 l -14.28,31.178 h 4.006 l 3.412,-7.497 z"
     id="path9" /><rect
     style="fill:#ffffff"
     x="92.750954"
     y="12.614003"
     width="3.5710001"
     height="18.563999"
     id="rect11" /><rect
     style="fill:#ffffff"
     x="102.82596"
     y="12.614003"
     width="3.5699999"
     height="18.563999"
     id="rect13" /><rect
     style="fill:#ffffff"
     x="102.82596"
     y="12.614003"
     width="3.5699999"
     height="18.563999"
     id="rect15" /><path
     style="fill:#ffffff"
     d="m 116.47196,12.614 h -3.57 v 15.152 3.412 h 3.57 2.499 c 1.96114,0.02078 3.59163,-0.20017 5.382,-0.514 4.896,-1.142 8.915,-4.008 10.65,-8.853 1.747,-4.854 0.97,-11.409 -2.399,-15.254 -3.467,-3.978 -8.521,-5.221 -13.633,-5.221 h -6.069 v 3.412 c 1.68,0 3.359,0 5.038,0 3.988,-0.017 8.487,0.775 11.397,3.729 2.938,2.982 3.51,8.453 2.057,12.281 -1.521,4.008 -5.006,5.92 -9.051,6.645 -1.408,0.245 -2.869,0.37 -4.403,0.363 h -1.309 -0.159 z"
     id="path17"
     inkscape:connector-curvature="0"
     sodipodi:nodetypes="cccccccccscccccccccc" /><path
     style="fill:#ffffff"
     d="m 154.57996,20.27 h -10.631 l 5.315,-12.099 z m 1.547,3.411 3.411,7.497 h 4.007 L 149.26496,0 l -14.28,31.178 h 4.007 l 3.411,-7.497 z"
     id="path19" /><path
     style="fill:#ffffff"
     fill-rule="evenodd"
     clip-rule="evenodd"
     d="m 94.535955,1.564 c 1.293,0 2.342,1.049 2.342,2.342 0,1.293 -1.049,2.342 -2.342,2.342 -1.293,0 -2.342,-1.048 -2.342,-2.342 0,-1.294 1.048,-2.342 2.342,-2.342"
     id="path21" /><path
     style="fill:#ffffff"
     fill-rule="evenodd"
     clip-rule="evenodd"
     d="m 104.61196,1.564 c 1.293,0 2.342,1.049 2.342,2.342 0,1.293 -1.049,2.342 -2.342,2.342 -1.294,0 -2.342,-1.048 -2.342,-2.342 0,-1.294 1.048,-2.342 2.342,-2.342"
     id="path23" /></g><g
   aria-label="PLUGIN REGISTRY"
   id="text37"
   style="font-style:normal;font-weight:normal;font-size:12.10609999999999964px;line-height:1.25;font-family:sans-serif;fill:#ffffff;fill-opacity:1;stroke:none;stroke-width:0.907961"><path
     d="m 62.819324,44.587882 v 3.706311 h -1.377306 v -9.126864 h 1.560552 q 1.14677,0 1.731977,0.159602 0.591118,0.159602 1.040367,0.60294 0.786188,0.768454 0.786188,1.938868 0,1.25317 -0.839388,1.986157 -0.839388,0.732986 -2.263983,0.732986 z m 0,-1.276815 h 0.514272 q 1.89749,0 1.89749,-1.460062 0,-1.412772 -1.956601,-1.412772 h -0.455161 z"
     style="font-style:normal;font-variant:normal;font-weight:normal;font-stretch:normal;font-size:12.10609999999999964px;font-family:Futura;-inkscape-font-specification:Futura;stroke-width:0.907961;fill:#ffffff"
     id="path1432" /><path
     d="m 69.368913,39.167329 v 7.832315 h 2.683676 v 1.294549 h -4.060982 v -9.126864 z"
     style="font-style:normal;font-variant:normal;font-weight:normal;font-stretch:normal;font-size:12.10609999999999964px;font-family:Futura;-inkscape-font-specification:Futura;stroke-width:0.907961;fill:#ffffff"
     id="path1434" /><path
     d="m 74.452529,39.167329 v 5.497399 q 0,1.176325 0.384227,1.720154 0.573384,0.786187 1.613752,0.786187 1.04628,0 1.619664,-0.786187 0.384227,-0.526096 0.384227,-1.720154 v -5.497399 h 1.377305 v 5.875714 q 0,1.442329 -0.898499,2.376295 -1.010812,1.040368 -2.482697,1.040368 -1.471884,0 -2.476785,-1.040368 -0.898499,-0.933966 -0.898499,-2.376295 v -5.875714 z"
     style="font-style:normal;font-variant:normal;font-weight:normal;font-stretch:normal;font-size:12.10609999999999964px;font-family:Futura;-inkscape-font-specification:Futura;stroke-width:0.907961;fill:#ffffff"
     id="path1436" /><path
     d="m 86.706408,43.541603 h 3.771334 v 0.30147 q 0,1.028546 -0.242359,1.820644 -0.236447,0.732987 -0.798009,1.371395 -1.270904,1.430506 -3.233416,1.430506 -1.915223,0 -3.280706,-1.383217 -1.365483,-1.389128 -1.365483,-3.333906 0,-1.986157 1.389127,-3.369374 1.389128,-1.389128 3.381196,-1.389128 1.069924,0 1.99798,0.437428 0.886677,0.437427 1.743798,1.418683 l -0.981256,0.939878 q -1.123124,-1.495529 -2.736877,-1.495529 -1.448239,0 -2.429496,0.99899 -0.981256,0.981256 -0.981256,2.459052 0,1.525084 1.093569,2.512252 1.022634,0.916233 2.216693,0.916233 1.016723,0 1.826555,-0.685697 0.809832,-0.691608 0.904411,-1.655131 h -2.275805 z"
     style="font-style:normal;font-variant:normal;font-weight:normal;font-stretch:normal;font-size:12.10609999999999964px;font-family:Futura;-inkscape-font-specification:Futura;stroke-width:0.907961;fill:#ffffff"
     id="path1438" /><path
     d="m 93.581113,39.167329 v 9.126864 h -1.377305 v -9.126864 z"
     style="font-style:normal;font-variant:normal;font-weight:normal;font-stretch:normal;font-size:12.10609999999999964px;font-family:Futura;-inkscape-font-specification:Futura;stroke-width:0.907961;fill:#ffffff"
     id="path1440" /><path
     d="m 95.77416,48.294193 v -9.747538 l 6.65599,6.963372 v -6.342698 h 1.37731 v 9.682515 l -6.655994,-6.945638 v 6.389987 z"
     style="font-style:normal;font-variant:normal;font-weight:normal;font-stretch:normal;font-size:12.10609999999999964px;font-family:Futura;-inkscape-font-specification:Futura;stroke-width:0.907961;fill:#ffffff"
     id="path1442" /><path
     d="m 112.8161,44.404636 2.82554,3.889557 h -1.68468 l -2.60683,-3.735867 h -0.24827 v 3.735867 h -1.37731 v -9.126864 h 1.61375 q 1.80882,0 2.61274,0.679786 0.88668,0.756631 0.88668,1.997979 0,0.969434 -0.55565,1.666953 -0.55565,0.69752 -1.46597,0.892589 z m -1.71424,-1.046279 h 0.43742 q 1.9566,0 1.9566,-1.495529 0,-1.40095 -1.9034,-1.40095 h -0.49062 z"
     style="font-style:normal;font-variant:normal;font-weight:normal;font-stretch:normal;font-size:12.10609999999999964px;font-family:Futura;-inkscape-font-specification:Futura;stroke-width:0.907961;fill:#ffffff"
     id="path1444" /><path
     d="m 122.04345,40.461878 h -3.65902 v 2.193048 h 3.55262 v 1.294549 h -3.55262 v 3.050169 h 3.65902 v 1.294549 h -5.03632 v -9.126864 h 5.03632 z"
     style="font-style:normal;font-variant:normal;font-weight:normal;font-stretch:normal;font-size:12.10609999999999964px;font-family:Futura;-inkscape-font-specification:Futura;stroke-width:0.907961;fill:#ffffff"
     id="path1446" /><path
     d="m 128.55757,43.541603 h 3.77134 v 0.30147 q 0,1.028546 -0.24236,1.820644 -0.23645,0.732987 -0.79801,1.371395 -1.2709,1.430506 -3.23342,1.430506 -1.91522,0 -3.2807,-1.383217 -1.36549,-1.389128 -1.36549,-3.333906 0,-1.986157 1.38913,-3.369374 1.38913,-1.389128 3.3812,-1.389128 1.06992,0 1.99798,0.437428 0.88667,0.437427 1.7438,1.418683 l -0.98126,0.939878 q -1.12312,-1.495529 -2.73688,-1.495529 -1.44824,0 -2.42949,0.99899 -0.98126,0.981256 -0.98126,2.459052 0,1.525084 1.09357,2.512252 1.02263,0.916233 2.21669,0.916233 1.01673,0 1.82656,-0.685697 0.80983,-0.691608 0.90441,-1.655131 h -2.27581 z"
     style="font-style:normal;font-variant:normal;font-weight:normal;font-stretch:normal;font-size:12.10609999999999964px;font-family:Futura;-inkscape-font-specification:Futura;stroke-width:0.907961;fill:#ffffff"
     id="path1448" /><path
     d="m 135.43228,39.167329 v 9.126864 h -1.37731 v -9.126864 z"
     style="font-style:normal;font-variant:normal;font-weight:normal;font-stretch:normal;font-size:12.10609999999999964px;font-family:Futura;-inkscape-font-specification:Futura;stroke-width:0.907961;fill:#ffffff"
     id="path1450" /><path
     d="m 142.78579,40.526901 -1.11721,0.662052 q -0.31329,-0.543829 -0.59703,-0.709342 -0.29556,-0.189158 -0.76254,-0.189158 -0.57339,0 -0.9517,0.325115 -0.37832,0.319204 -0.37832,0.803921 0,0.667964 0.99308,1.075835 l 0.91032,0.372404 q 1.1113,0.44925 1.62558,1.09948 0.51427,0.644319 0.51427,1.584197 0,1.259082 -0.83939,2.080736 -0.8453,0.827565 -2.09847,0.827565 -1.18815,0 -1.96251,-0.70343 -0.76254,-0.703431 -0.9517,-1.980246 l 1.39504,-0.307382 q 0.0946,0.803921 0.33102,1.111303 0.42561,0.591118 1.24135,0.591118 0.64432,0 1.06993,-0.431517 0.4256,-0.431516 0.4256,-1.093568 0,-0.266003 -0.0768,-0.484717 -0.0709,-0.224625 -0.23054,-0.407872 -0.15369,-0.189157 -0.40196,-0.348759 -0.24827,-0.165513 -0.59112,-0.313293 l -0.88077,-0.366493 q -1.87384,-0.792099 -1.87384,-2.317183 0,-1.028546 0.78619,-1.720154 0.78618,-0.69752 1.9566,-0.69752 1.57828,0 2.46496,1.536908 z"
     style="font-style:normal;font-variant:normal;font-weight:normal;font-stretch:normal;font-size:12.10609999999999964px;font-family:Futura;-inkscape-font-specification:Futura;stroke-width:0.907961;fill:#ffffff"
     id="path1452" /><path
     d="m 147.3906,40.461878 v 7.832315 h -1.3773 v -7.832315 h -2.09847 v -1.294549 h 5.56833 v 1.294549 z"
     style="font-style:normal;font-variant:normal;font-weight:normal;font-stretch:normal;font-size:12.10609999999999964px;font-family:Futura;-inkscape-font-specification:Futura;stroke-width:0.907961;fill:#ffffff"
     id="path1454" /><path
     d="m 153.81605,44.404636 2.82555,3.889557 h -1.68469 l -2.60683,-3.735867 h -0.24827 v 3.735867 h -1.37731 v -9.126864 h 1.61376 q 1.80882,0 2.61274,0.679786 0.88668,0.756631 0.88668,1.997979 0,0.969434 -0.55565,1.666953 -0.55566,0.69752 -1.46598,0.892589 z m -1.71424,-1.046279 h 0.43743 q 1.9566,0 1.9566,-1.495529 0,-1.40095 -1.9034,-1.40095 h -0.49063 z"
     style="font-style:normal;font-variant:normal;font-weight:normal;font-stretch:normal;font-size:12.10609999999999964px;font-family:Futura;-inkscape-font-specification:Futura;stroke-width:0.907961;fill:#ffffff"
     id="path1456" /><path
     d="M 159.46123,44.351435 156.482,39.167329 h 1.58419 l 2.08665,3.647199 2.09256,-3.647199 h 1.5842 l -2.99106,5.184106 v 3.942758 h -1.37731 z"
     style="font-style:normal;font-variant:normal;font-weight:normal;font-stretch:normal;font-size:12.10609999999999964px;font-family:Futura;-inkscape-font-specification:Futura;stroke-width:0.907961;fill:#ffffff"
     id="path1458" /></g><g
   transform="matrix(0.28087151,0,0,0.28087151,27.936598,84.213828)"
   id="g1111"><path
     id="path1029"
     style="fill:#ff7d17;fill-opacity:1;stroke:none;stroke-width:1px;stroke-linecap:butt;stroke-linejoin:miter;stroke-opacity:1"
     d="m 0.3600859,-297.86963 -41.1601599,71.44531 11.06836,6.57812 c 3.69657,2.8151 2.62411,6.67194 -1.75586,7.7793 -2.30466,0.59027 -4.91917,0.66321 -7.02734,4.21289 -2.34314,3.94532 -1.32216,11.38646 5.54492,15.46485 6.8671,4.07838 13.88929,1.41406 16.23242,-2.53125 2.10818,-3.5497 0.91847,-5.88139 0.33398,-8.1875 -1.12085,-4.36564 1.73403,-7.14959 5.96094,-5.27539 l 10.6660199,6.33789 9.0390602,-5.39649 c 4.7696699,-2.84821 3.8615899,-7.2218 -0.85547,-8.40234 -2.3060502,-0.58474 -4.9204202,-0.65068 -7.0371102,-4.19531 -2.35258,-3.93969 -1.3495,-11.38367 5.5078202,-15.47852 6.8572899,-4.09485 13.8856699,-1.4475 16.2382799,2.49219 2.11668,3.54463 0.93246,5.87803 0.35351,8.18554 -1.19791,4.71268 2.2281,7.58433 6.99414,4.73829 l 10.6875,-6.38282 z" /><path
     d="m -98.335563,-126.92378 82.45352,-0.0769 0.16265,-12.87455 c 0.58966,-4.60885 4.46602,-5.6085 7.6149904,-2.36903 1.66353,1.70078 3.03394,3.92853 7.16214004,3.97941 4.58832956,0.0566 10.52205956,-4.54819 10.62048956,-12.53445 0.0984,-7.98628 -5.72002,-12.73551 -10.30833956,-12.79207 -4.12820004,-0.0509 -5.55265004,2.14528 -7.25757004,3.80452 -3.2203304,3.1535 -7.0587304,2.07308 -7.5490904,-2.52463 l 0.15577,-12.406 -9.19302,-5.12981 c -4.85147,-2.70654 -8.18506,0.26668 -6.84892,4.94204 0.64664,2.28945 1.8967,4.58654 -0.11469,8.19197 -2.23562,4.00721 -9.1838,6.86053 -16.15869,2.96934 -6.97488,-3.89117 -8.19641,-11.30159 -5.96085,-15.30885 2.01139,-3.60542 4.6243,-3.74655 6.91214,-4.39892 4.68025,-1.31893 5.45417,-5.72176 0.60641,-8.42624 l -10.87144,-6.06424 z"
     style="fill:#30b808;fill-opacity:1;stroke:none;stroke-width:1px;stroke-linecap:butt;stroke-linejoin:miter;stroke-opacity:1"
     id="path1100" /><path
     id="path1102"
     style="fill:#0096de;fill-opacity:1;stroke:none;stroke-width:1px;stroke-linecap:butt;stroke-linejoin:miter;stroke-opacity:1"
     d="m 99.055716,-126.92378 -41.293366,-71.3684 -11.23101,6.29641 c -4.28622,1.79378 -7.09012,-1.06342 -5.85914,-5.41026 0.64115,-2.29103 1.88524,-4.59173 -0.1348,-8.1923 -2.24518,-4.00188 -9.19988,-6.83826 -16.1654,-2.93038 -6.96554,3.90789 -8.16927,11.32144 -5.92409,15.32331 2.02004,3.60058 4.6342,3.73611 6.9236,4.38298 4.34117,1.21214 5.3247,5.07651 1.58815,7.80002 l -10.82179,6.0681 0.15397,10.5263 c 0.0818,5.55476 4.32347,6.95514 7.70438,3.46031 1.65941,-1.70473 3.02371,-3.93586 7.1518,-3.99666 4.58815,-0.0675 10.53329,4.52314 10.65087,12.50917 0.1176,7.98601 -5.68926,12.7491 -10.27743,12.81667 -4.12808,0.0608 -5.55676,-2.13148 -7.26565,-3.78662 -3.48234,-3.39376 -7.68227,-1.86258 -7.60054,3.68796 l 0.18393,12.44705 z" /></g></svg>
